#!OML:ASF H:\ManfredETheater\Project 1\Capture day 1\Session 1\subject.ASF
:FULLY-SPECIFIED
:DEGREES
109
root 4.27128 17.0693 -30.2472 -162.359 -1.61722 -188.796
lowerback 10.1341 -2.29154 -7.26578
upperback -2.42625 -4.04806 0.0951164
thorax -7.7833 -1.63954 4.84934
lowerneck -26.4777 -0.894336 -2.91043
upperneck 13.2343 -0.181336 0.437281
head 8.39223 -0.168492 0.591467
rclavicle 6.52014e-014 1.55052e-014
rhumerus -78.6123 1.82603 -80.6417
rradius 80.6401
rwrist -12.3999
rhand -28.7657 12.6094
rfingers 7.12502
rthumb -2.12543 -17.3597
lclavicle 6.52014e-014 1.55052e-014
lhumerus -36.7729 -21.3292 99.4076
lradius 135.558
lwrist 14.6931
lhand -21.115 -12.4265
lfingers 7.12502
lthumb 5.26336 17.4881
rfemur -62.546 -6.40669 11.646
rtibia 54.3318
rfoot -11.5415 -9.78686
rtoes -32.5882
lfemur 12.4174 -10.5867 -32.95
ltibia 32.2586
lfoot 29.6705 -4.615
ltoes 6.30332
110
root 4.28619 17.093 -31.008 -162.573 -1.46538 -189.184
lowerback 9.83359 -2.45048 -7.49968
upperback -2.42003 -4.26369 0.124441
thorax -7.55739 -1.74543 5.02234
lowerneck -26.5697 -0.673582 -2.81886
upperneck 13.4608 0.1765 -0.00712617
head 8.4802 -0.048407 0.476086
rclavicle -1.70955e-014 1.03368e-014
rhumerus -78.2195 1.72084 -79.8977
rradius 80.8425
rwrist -11.4488
rhand -28.6098 12.6805
rfingers 7.12502
rthumb -1.9749 -17.2901
lclavicle -1.70955e-014 1.03368e-014
lhumerus -37.5068 -20.716 99.0404
lradius 134.513
lwrist 14.2134
lhand -21.167 -12.1653
lfingers 7.12502
lthumb 5.21307 17.7506
rfemur -61.957 -6.14065 10.8809
rtibia 49.1653
rfoot -11.3571 -9.84954
rtoes -33.3346
lfemur 13.6155 -11.3676 -33.9977
ltibia 33.8854
lfoot 29.216 -4.89532
ltoes 7.5193
111
root 4.30298 17.102 -31.76 -162.738 -1.38796 -189.626
lowerback 9.56207 -2.60264 -7.80774
upperback -2.41623 -4.47948 0.170273
thorax -7.34294 -1.84771 5.25388
lowerneck -26.5635 -0.48437 -2.76096
upperneck 13.5322 0.507268 -0.462763
head 8.50173 0.0589179 0.358325
rclavicle 2.34566e-014 3.61788e-014
rhumerus -77.6533 1.60148 -79.1875
rradius 81.0288
rwrist -10.551
rhand -28.474 12.6872
rfingers 7.12502
rthumb -1.84375 -17.2846
lclavicle 2.34566e-014 3.61788e-014
lhumerus -38.2958 -20.0614 98.8321
lradius 133.176
lwrist 13.9372
lhand -21.2178 -11.8617
lfingers 7.12502
lthumb 5.16402 18.0554
rfemur -61.3307 -5.87617 10.0039
rtibia 44.3244
rfoot -11.1408 -10.156
rtoes -34.1543
lfemur 14.227 -11.8185 -34.9143
ltibia 36.4688
lfoot 28.4514 -5.21853
ltoes 7.84541
112
root 4.32147 17.0975 -32.5053 -162.882 -1.37478 -190.083
lowerback 9.31572 -2.73961 -8.15189
upperback -2.4108 -4.67796 0.235071
thorax -7.13737 -1.93972 5.52275
lowerneck -26.4529 -0.334216 -2.74886
upperneck 13.4837 0.79737 -0.90642
head 8.46749 0.149281 0.246114
rclavicle 2.32578e-014 3.10104e-014
rhumerus -76.934 1.44963 -78.5174
rradius 81.1698
rwrist -9.85261
rhand -28.364 12.6659
rfingers 7.12502
rthumb -1.73748 -17.3068
lclavicle 2.32578e-014 3.10104e-014
lhumerus -39.1289 -19.3886 98.7879
lradius 131.57
lwrist 13.8658
lhand -21.2708 -11.5412
lfingers 7.12502
lthumb 5.11288 18.3771
rfemur -60.6717 -5.59266 9.06232
rtibia 39.974
rfoot -10.9028 -10.7158
rtoes -34.9336
lfemur 14.349 -12.0055 -35.6575
ltibia 39.811
lfoot 27.7637 -5.47901
ltoes 7.68988
